<mxfile host="app.diagrams.net" modified="2022-03-09T21:16:06.868Z" agent="5.0 (Windows NT 10.0; Win64; x64) AppleWebKit/537.36 (KHTML, like Gecko) Chrome/98.0.4758.102 Safari/537.36" etag="IDX8EbGF0boUjjSW9BIJ" version="17.1.0" type="github">
  <diagram id="-uRTVZ6xyd__EYCAiGyI" name="Page-1">
    <mxGraphModel dx="868" dy="450" grid="1" gridSize="10" guides="1" tooltips="1" connect="1" arrows="1" fold="1" page="1" pageScale="1" pageWidth="850" pageHeight="1100" math="0" shadow="0">
      <root>
        <mxCell id="0" />
        <mxCell id="1" parent="0" />
        <mxCell id="xfakINtN89_Vgtfd74Ad-1" value="" style="shape=cylinder3;whiteSpace=wrap;html=1;boundedLbl=1;backgroundOutline=1;size=15;fillColor=#8BFF59;" parent="1" vertex="1">
          <mxGeometry x="60" y="30" width="120" height="180" as="geometry" />
        </mxCell>
        <mxCell id="xfakINtN89_Vgtfd74Ad-2" value="CRC CMS RNASEQ DATASETS" style="text;html=1;strokeColor=none;fillColor=none;align=center;verticalAlign=middle;whiteSpace=wrap;rounded=0;" parent="1" vertex="1">
          <mxGeometry x="90" y="90" width="60" height="30" as="geometry" />
        </mxCell>
        <mxCell id="xfakINtN89_Vgtfd74Ad-3" value="" style="shape=flexArrow;endArrow=classic;html=1;rounded=0;exitX=1.025;exitY=0.428;exitDx=0;exitDy=0;exitPerimeter=0;fontColor=#80FF00;labelBackgroundColor=#33FF33;" parent="1" source="xfakINtN89_Vgtfd74Ad-1" edge="1">
          <mxGeometry width="50" height="50" relative="1" as="geometry">
            <mxPoint x="220" y="160" as="sourcePoint" />
            <mxPoint x="280" y="107" as="targetPoint" />
          </mxGeometry>
        </mxCell>
        <mxCell id="xfakINtN89_Vgtfd74Ad-4" value="" style="rounded=1;whiteSpace=wrap;html=1;fontColor=#000000;" parent="1" vertex="1">
          <mxGeometry x="280" y="20" width="190" height="220" as="geometry" />
        </mxCell>
        <mxCell id="xfakINtN89_Vgtfd74Ad-5" value="Pathway analysis" style="text;html=1;strokeColor=none;fillColor=none;align=center;verticalAlign=middle;whiteSpace=wrap;rounded=0;fontStyle=5" parent="1" vertex="1">
          <mxGeometry x="315" y="40" width="115" height="30" as="geometry" />
        </mxCell>
        <mxCell id="xfakINtN89_Vgtfd74Ad-6" value="" style="shape=flexArrow;endArrow=classic;html=1;rounded=0;" parent="1" edge="1">
          <mxGeometry width="50" height="50" relative="1" as="geometry">
            <mxPoint x="480" y="100" as="sourcePoint" />
            <mxPoint x="557" y="100" as="targetPoint" />
          </mxGeometry>
        </mxCell>
        <mxCell id="xfakINtN89_Vgtfd74Ad-7" value="" style="rounded=1;whiteSpace=wrap;html=1;" parent="1" vertex="1">
          <mxGeometry x="560" y="20" width="220" height="170" as="geometry" />
        </mxCell>
        <mxCell id="xfakINtN89_Vgtfd74Ad-8" value="Visualize with R-shiny" style="text;html=1;strokeColor=none;fillColor=none;align=center;verticalAlign=middle;whiteSpace=wrap;rounded=0;fontStyle=5" parent="1" vertex="1">
          <mxGeometry x="590" y="50" width="140" height="30" as="geometry" />
        </mxCell>
        <mxCell id="xfakINtN89_Vgtfd74Ad-11" value="" style="shape=flexArrow;endArrow=classic;html=1;rounded=0;width=13;endSize=5.19;entryX=1.02;entryY=0.447;entryDx=0;entryDy=0;entryPerimeter=0;exitX=0.418;exitY=1.024;exitDx=0;exitDy=0;exitPerimeter=0;" parent="1" target="xfakINtN89_Vgtfd74Ad-12" edge="1" source="xfakINtN89_Vgtfd74Ad-7">
          <mxGeometry width="50" height="50" relative="1" as="geometry">
            <mxPoint x="654.5" y="200" as="sourcePoint" />
            <mxPoint x="654.5" y="300" as="targetPoint" />
            <Array as="points">
              <mxPoint x="654.5" y="250" />
            </Array>
          </mxGeometry>
        </mxCell>
        <mxCell id="xfakINtN89_Vgtfd74Ad-12" value="" style="whiteSpace=wrap;html=1;aspect=fixed;" parent="1" vertex="1">
          <mxGeometry x="400" y="260" width="150" height="150" as="geometry" />
        </mxCell>
        <mxCell id="xfakINtN89_Vgtfd74Ad-13" value="Disease Subtyping" style="text;html=1;strokeColor=none;fillColor=none;align=center;verticalAlign=middle;whiteSpace=wrap;rounded=0;fontStyle=5" parent="1" vertex="1">
          <mxGeometry x="442.5" y="270" width="115" height="30" as="geometry" />
        </mxCell>
        <mxCell id="IsUo8-37KHM_wyEVmpBv-1" value="Clinician" style="shape=umlActor;verticalLabelPosition=bottom;verticalAlign=top;html=1;outlineConnect=0;" vertex="1" parent="1">
          <mxGeometry x="220" y="270" width="90" height="100" as="geometry" />
        </mxCell>
        <mxCell id="IsUo8-37KHM_wyEVmpBv-2" value="" style="endArrow=classic;html=1;rounded=0;" edge="1" parent="1">
          <mxGeometry width="50" height="50" relative="1" as="geometry">
            <mxPoint x="340" y="300" as="sourcePoint" />
            <mxPoint x="390" y="300" as="targetPoint" />
          </mxGeometry>
        </mxCell>
        <mxCell id="IsUo8-37KHM_wyEVmpBv-3" value="Recommending&amp;nbsp;&lt;br&gt;Drugs" style="text;html=1;strokeColor=none;fillColor=none;align=center;verticalAlign=middle;whiteSpace=wrap;rounded=0;" vertex="1" parent="1">
          <mxGeometry x="340" y="260" width="60" height="30" as="geometry" />
        </mxCell>
      </root>
    </mxGraphModel>
  </diagram>
</mxfile>
